HIERARCHY
ROOT Hips
{
  OFFSET 365.14 88.179 197.519
  CHANNELS 6 Xposition Yposition Zposition Zrotation Xrotation Yrotation
  JOINT RightUpLeg
  {
    OFFSET -9.25084 -1.53971 -0.0324706
    CHANNELS 3 Zrotation Xrotation Yrotation
    JOINT RightLeg
    {
      OFFSET 0.0147984 -41.8767 0.0743683
      CHANNELS 3 Zrotation Xrotation Yrotation
      JOINT RightFoot
      {
        OFFSET 0.58129 -42.7665 -0.0966173
        CHANNELS 3 Zrotation Xrotation Yrotation
        End Site
        {
          OFFSET 0 -7.69 17.5
        }
      }
    }
  }
  JOINT LeftUpLeg
  {
    OFFSET 9.27183 -1.63567 0.0208533
    CHANNELS 3 Zrotation Xrotation Yrotation
    JOINT LeftLeg
    {
      OFFSET 0.0380064 -41.894 -0.0332375
      CHANNELS 3 Zrotation Xrotation Yrotation
      JOINT LeftFoot
      {
        OFFSET -0.00137207 -40.7578 0.276477
        CHANNELS 3 Zrotation Xrotation Yrotation
        End Site
        {
          OFFSET 0 -7.69 17.5
        }
      }
    }
  }
  JOINT Spine
  {
    OFFSET 0.0273715 14.2953 0.0132618
    CHANNELS 3 Zrotation Xrotation Yrotation
    JOINT Spine1
    {
      OFFSET 0.0356242 9.71545 0.0178671
      CHANNELS 3 Zrotation Xrotation Yrotation
      JOINT Spine2
      {
        OFFSET 0.0275401 10.1205 0.00234803
        CHANNELS 3 Zrotation Xrotation Yrotation
        JOINT Spine3
        {
          OFFSET 0.0388833 9.71499 0.00573168
          CHANNELS 3 Zrotation Xrotation Yrotation
          JOINT Neck
          {
            OFFSET 0.0812761 10.3796 0.11061
            CHANNELS 3 Zrotation Xrotation Yrotation
            JOINT Head
            {
              OFFSET 0.0694951 9.4737 0.0873993
              CHANNELS 3 Zrotation Xrotation Yrotation
              End Site
              {
                OFFSET 0 15.95 0
              }
            }
          }
          JOINT RightShoulder
          {
            OFFSET -3.16911 6.92878 0.0176909
            CHANNELS 3 Zrotation Xrotation Yrotation
            JOINT RightArm
            {
              OFFSET -12.7939 0.0472484 0.0511932
              CHANNELS 3 Zrotation Xrotation Yrotation
              JOINT RightForeArm
              {
                OFFSET -26.5086 -0.00989181 0.0576382
                CHANNELS 3 Zrotation Xrotation Yrotation
                JOINT RightHand
                {
                  OFFSET -26.0357 0.339815 -0.212656
                  CHANNELS 3 Zrotation Xrotation Yrotation
                  JOINT RightHandThumb1
                  {
                    OFFSET -2.48905 0.190105 3.12053
                    CHANNELS 3 Zrotation Xrotation Yrotation
                    JOINT RightHandThumb2
                    {
                      OFFSET -3.68274 0 0
                      CHANNELS 3 Zrotation Xrotation Yrotation
                      JOINT RightHandThumb3
                      {
                        OFFSET -2.55832 0 0
                        CHANNELS 3 Zrotation Xrotation Yrotation
                        End Site
                        {
                          OFFSET -2.194 0 0
                        }
                      }
                    }
                  }
                  JOINT RightInHandIndex
                  {
                    OFFSET -3.22368 0.508421 1.97842
                    CHANNELS 3 Zrotation Xrotation Yrotation
                    JOINT RightHandIndex1
                    {
                      OFFSET -5.21684 -0.091368 0.999158
                      CHANNELS 3 Zrotation Xrotation Yrotation
                      JOINT RightHandIndex2
                      {
                        OFFSET -3.61937 0 0
                        CHANNELS 3 Zrotation Xrotation Yrotation
                        JOINT RightHandIndex3
                        {
                          OFFSET -2.0521 0 0
                          CHANNELS 3 Zrotation Xrotation Yrotation
                          End Site
                          {
                            OFFSET -1.805 0 0
                          }
                        }
                      }
                    }
                  }
                  JOINT RightInHandMiddle
                  {
                    OFFSET -3.38211 0.517263 0.756737
                    CHANNELS 3 Zrotation Xrotation Yrotation
                    JOINT RightHandMiddle1
                    {
                      OFFSET -5.17411 -0.084 0.313895
                      CHANNELS 3 Zrotation Xrotation Yrotation
                      JOINT RightHandMiddle2
                      {
                        OFFSET -3.94947 0 0
                        CHANNELS 3 Zrotation Xrotation Yrotation
                        JOINT RightHandMiddle3
                        {
                          OFFSET -2.47579 0 0
                          CHANNELS 3 Zrotation Xrotation Yrotation
                          End Site
                          {
                            OFFSET -1.975 0 0
                          }
                        }
                      }
                    }
                  }
                  JOINT RightInHandRing
                  {
                    OFFSET -3.36516 0.537895 -0.128947
                    CHANNELS 3 Zrotation Xrotation Yrotation
                    JOINT RightHandRing1
                    {
                      OFFSET -4.63474 -0.022105 -0.478947
                      CHANNELS 3 Zrotation Xrotation Yrotation
                      JOINT RightHandRing2
                      {
                        OFFSET -3.44238 0 0
                        CHANNELS 3 Zrotation Xrotation Yrotation
                        JOINT RightHandRing3
                        {
                          OFFSET -2.3881 0 0
                          CHANNELS 3 Zrotation Xrotation Yrotation
                          End Site
                          {
                            OFFSET -1.857 0 0
                          }
                        }
                      }
                    }
                  }
                  JOINT RightInHandPinky
                  {
                    OFFSET -3.16105 0.469368 -1.20179
                    CHANNELS 3 Zrotation Xrotation Yrotation
                    JOINT RightHandPinky1
                    {
                      OFFSET -4.14105 -0.022105 -1.09053
                      CHANNELS 3 Zrotation Xrotation Yrotation
                      JOINT RightHandPinky2
                      {
                        OFFSET -2.75653 0 0
                        CHANNELS 3 Zrotation Xrotation Yrotation
                        JOINT RightHandPinky3
                        {
                          OFFSET -1.74189 0 0
                          CHANNELS 3 Zrotation Xrotation Yrotation
                          End Site
                          {
                            OFFSET -1.645 0 0
                          }
                        }
                      }
                    }
                  }
                }
              }
            }
          }
          JOINT LeftShoulder
          {
            OFFSET 3.24184 6.89832 -0.0228965
            CHANNELS 3 Zrotation Xrotation Yrotation
            JOINT LeftArm
            {
              OFFSET 12.8376 -0.0155948 -0.0448787
              CHANNELS 3 Zrotation Xrotation Yrotation
              JOINT LeftForeArm
              {
                OFFSET 26.5019 -0.0237061 -0.00609661
                CHANNELS 3 Zrotation Xrotation Yrotation
                JOINT LeftHand
                {
                  OFFSET 25.9931 -0.0767526 0.00928659
                  CHANNELS 3 Zrotation Xrotation Yrotation
                  JOINT LeftHandThumb1
                  {
                    OFFSET 2.48905 0.190105 3.12053
                    CHANNELS 3 Zrotation Xrotation Yrotation
                    JOINT LeftHandThumb2
                    {
                      OFFSET 3.68274 0 0
                      CHANNELS 3 Zrotation Xrotation Yrotation
                      JOINT LeftHandThumb3
                      {
                        OFFSET 2.55832 0 0
                        CHANNELS 3 Zrotation Xrotation Yrotation
                        End Site
                        {
                          OFFSET 2.194 0 0
                        }
                      }
                    }
                  }
                  JOINT LeftInHandIndex
                  {
                    OFFSET 3.22368 0.508421 1.97842
                    CHANNELS 3 Zrotation Xrotation Yrotation
                    JOINT LeftHandIndex1
                    {
                      OFFSET 5.21684 -0.091368 0.999158
                      CHANNELS 3 Zrotation Xrotation Yrotation
                      JOINT LeftHandIndex2
                      {
                        OFFSET 3.61937 0 0
                        CHANNELS 3 Zrotation Xrotation Yrotation
                        JOINT LeftHandIndex3
                        {
                          OFFSET 2.0521 0 0
                          CHANNELS 3 Zrotation Xrotation Yrotation
                          End Site
                          {
                            OFFSET 1.805 0 0
                          }
                        }
                      }
                    }
                  }
                  JOINT LeftInHandMiddle
                  {
                    OFFSET 3.38211 0.517263 0.756737
                    CHANNELS 3 Zrotation Xrotation Yrotation
                    JOINT LeftHandMiddle1
                    {
                      OFFSET 5.17411 -0.084 0.313895
                      CHANNELS 3 Zrotation Xrotation Yrotation
                      JOINT LeftHandMiddle2
                      {
                        OFFSET 3.94947 0 0
                        CHANNELS 3 Zrotation Xrotation Yrotation
                        JOINT LeftHandMiddle3
                        {
                          OFFSET 2.47579 0 0
                          CHANNELS 3 Zrotation Xrotation Yrotation
                          End Site
                          {
                            OFFSET 1.975 0 0
                          }
                        }
                      }
                    }
                  }
                  JOINT LeftInHandRing
                  {
                    OFFSET 3.36516 0.537895 -0.128947
                    CHANNELS 3 Zrotation Xrotation Yrotation
                    JOINT LeftHandRing1
                    {
                      OFFSET 4.63474 -0.022105 -0.478947
                      CHANNELS 3 Zrotation Xrotation Yrotation
                      JOINT LeftHandRing2
                      {
                        OFFSET 3.44238 0 0
                        CHANNELS 3 Zrotation Xrotation Yrotation
                        JOINT LeftHandRing3
                        {
                          OFFSET 2.3881 0 0
                          CHANNELS 3 Zrotation Xrotation Yrotation
                          End Site
                          {
                            OFFSET 1.857 0 0
                          }
                        }
                      }
                    }
                  }
                  JOINT LeftInHandPinky
                  {
                    OFFSET 3.16105 0.469368 -1.20179
                    CHANNELS 3 Zrotation Xrotation Yrotation
                    JOINT LeftHandPinky1
                    {
                      OFFSET 4.14105 -0.022105 -1.09053
                      CHANNELS 3 Zrotation Xrotation Yrotation
                      JOINT LeftHandPinky2
                      {
                        OFFSET 2.75653 0 0
                        CHANNELS 3 Zrotation Xrotation Yrotation
                        JOINT LeftHandPinky3
                        {
                          OFFSET 1.74189 0 0
                          CHANNELS 3 Zrotation Xrotation Yrotation
                          End Site
                          {
                            OFFSET 1.645 0 0
                          }
                        }
                      }
                    }
                  }
                }
              }
            }
          }
        }
      }
    }
  }
}
MOTION
Frames: 3
Frame Time: 0.00833333
6.000278093921609752e+02 -1.894238414551126584e-02 3.913731811964915597e-02 -9.896412346455850384e-02 -3.117814550563099418e-01 -5.734531026344527049e-01 5.176812869536517869e-01 -1.262227177583669091e-01 8.224287839751831530e-01 -1.723056254489762074e-01 -2.428610796947747522e-02 -6.077769298185885238e-02 -3.504501057617114002e-02 1.852057506374837625e-01 1.243283300593239493e-01 9.555214667563002862e-02 1.616617561455578056e-01 4.826814249218275288e-01 -9.011728725973010279e-02 3.361935532134412846e-02 2.190683748675501322e-02 9.557554071398716156e-02 -3.624463599744640052e-02 1.814353886267685290e-01 -3.307382656194757242e-01 6.481559920401713804e-02 4.164464754937372559e-01 -6.956291631011231325e-02 6.309410239119271797e-03 9.439571239318558793e-02 -1.157876293586818928e-01 -1.376886175256147610e-03 1.487109993308240452e-01 2.305186265847187013e-03 -8.187518362065040675e-03 -1.823211203919814340e-03 2.632730224430869514e-02 8.896613942307771139e-02 -1.175190354812890858e-01 8.146168308807169578e-03 -2.554979687126542887e-01 4.297729475348385786e-02 -2.154920973221363147e-03 9.779856957954376206e-02 1.156237168519493597e-01 -2.082063993831821669e-01 -1.183697278884106863e-01 -1.503466656632892473e-01 2.164019011741468823e+00 -9.886393766984461484e-01 -1.780700800108176329e+00 9.234831328534370831e-01 2.821212934949570261e+00 1.541892418211032512e+00 0.000000000000000000e+00 0.000000000000000000e+00 0.000000000000000000e+00 1.136649305811503153e-15 -2.648086840374849846e-17 0.000000000000000000e+00 -1.679114379984945954e-15 -3.628044057079451685e-16 0.000000000000000000e+00 -8.984663163814412428e-16 4.765284232297177970e-16 5.815755872677412860e-16 0.000000000000000000e+00 0.000000000000000000e+00 0.000000000000000000e+00 0.000000000000000000e+00 -2.452656526186590902e-15 -1.249947083843646526e-15 0.000000000000000000e+00 6.708549654975996424e-17 -3.508386625824024298e-16 -8.984663163814412428e-16 4.765284232297177970e-16 5.815755872677412860e-16 0.000000000000000000e+00 3.683030499829884436e-16 1.521985543100258384e-15 0.000000000000000000e+00 -1.402740821405779510e-16 -2.548899626223201538e-15 0.000000000000000000e+00 -1.417744889857354173e-16 -1.664587397554198661e-15 -8.984663163814412428e-16 4.765284232297177970e-16 5.815755872677412860e-16 0.000000000000000000e+00 0.000000000000000000e+00 0.000000000000000000e+00 0.000000000000000000e+00 -3.739636772845149474e-16 -1.691177510437150875e-15 0.000000000000000000e+00 3.788958860059463595e-16 -4.022602598790727363e-15 -8.984663163814412428e-16 4.765284232297177970e-16 5.815755872677412860e-16 0.000000000000000000e+00 0.000000000000000000e+00 0.000000000000000000e+00 0.000000000000000000e+00 -7.318897953554597221e-16 -2.621828627492696033e-15 0.000000000000000000e+00 -7.434314036132674064e-16 -7.138167304634914067e-16 -4.026033585141754884e-02 -7.367732768524684096e-03 -2.794598739507140328e-01 1.737021996657815426e-01 1.711191407673337550e-02 1.509904994556197644e-01 2.410479057684986395e-02 -2.176955379550276348e-01 8.589364016891880282e-02 1.840708478467668052e-01 4.841912055086628475e-01 -1.186368571544618389e+00 0.000000000000000000e+00 0.000000000000000000e+00 0.000000000000000000e+00 1.248083068120445609e-15 -2.089009792408705163e-15 0.000000000000000000e+00 -3.907931917576950058e-16 -2.311480924503858234e-15 0.000000000000000000e+00 2.135033159418289361e-16 -9.863874533912909988e-17 -9.165327083168800918e-16 0.000000000000000000e+00 0.000000000000000000e+00 0.000000000000000000e+00 0.000000000000000000e+00 -2.432967627612348588e-15 1.394358259107652139e-15 0.000000000000000000e+00 -1.155766672331449466e-15 -3.461583094855430954e-15 2.135033159418289361e-16 -9.863874533912909988e-17 -9.165327083168800918e-16 0.000000000000000000e+00 7.063187541553381653e-16 3.162748494628508778e-16 0.000000000000000000e+00 4.148446349305372531e-16 3.594073144407560599e-15 0.000000000000000000e+00 2.613441366621624556e-15 1.075197574859356199e-15 2.135033159418289361e-16 -9.863874533912909988e-17 -9.165327083168800918e-16 0.000000000000000000e+00 0.000000000000000000e+00 0.000000000000000000e+00 0.000000000000000000e+00 -8.083907880628743080e-16 1.406644981693182063e-15 0.000000000000000000e+00 -2.328209544552819704e-15 1.666979356051681788e-15 2.135033159418289361e-16 -9.863874533912909988e-17 -9.165327083168800918e-16 0.000000000000000000e+00 0.000000000000000000e+00 0.000000000000000000e+00 0.000000000000000000e+00 -2.344022502313651843e-15 3.996631255009304804e-15 0.000000000000000000e+00 1.156332044060545571e-15 -5.987301436453505427e-16
6.000335955915193153e+02 -1.695587292136523788e-02 3.545206783826176933e-02 -1.136185359792159510e-01 -3.571700551241971944e-01 -6.483109304204528467e-01 5.683847835565808415e-01 -1.213852227038361570e-01 9.484943412909310201e-01 -1.781718026226006002e-01 -2.601436417991396383e-02 -4.133170189884214502e-02 -2.943848940226167013e-02 1.753283800346644994e-01 9.452435980403051108e-02 1.160402382702486745e-01 1.834102864221466012e-01 5.989876308470993838e-01 -8.971846282294404507e-02 5.154118348441102948e-02 2.748824861936918426e-02 7.888521241068827128e-02 -3.141140566686614899e-02 1.392449945630888919e-01 -3.828737400177883443e-01 7.430251318536347516e-02 4.684070971006621953e-01 -8.088063275480238123e-02 9.390632734310427887e-03 1.057718155592897308e-01 -1.344194448745047732e-01 4.392453793828706918e-03 1.664313354204572937e-01 1.690417754929830719e-03 -8.570188845827051913e-03 -2.632993025250817201e-03 -4.983599054086005654e-03 4.249889404845759444e-02 -4.050953208023954505e-02 2.704498274797652313e-02 -2.044831361369383871e-01 -1.224137842593607702e-02 4.004657654671660988e-02 9.968326519076325942e-02 8.934725055005802996e-02 -1.734459122932710262e-01 3.602934419206719335e-02 -1.072917456802106595e-01 1.938145242432318671e+00 -8.979604152166430486e-01 -1.585784985540439340e+00 8.520648776134259750e-01 2.619660690562092054e+00 1.523331485812404518e+00 0.000000000000000000e+00 0.000000000000000000e+00 0.000000000000000000e+00 1.387749423783645533e-15 1.248092442704537322e-16 0.000000000000000000e+00 -2.217110478965995600e-15 -7.228844624661026562e-16 0.000000000000000000e+00 -8.960859258024441794e-16 4.243025442769217592e-16 4.616820763560671419e-16 0.000000000000000000e+00 0.000000000000000000e+00 0.000000000000000000e+00 0.000000000000000000e+00 -2.242660976011924995e-15 -1.008986270377051387e-15 0.000000000000000000e+00 3.257882273544048615e-16 -7.529748100404950976e-17 -8.960859258024441794e-16 4.243025442769217592e-16 4.616820763560671419e-16 0.000000000000000000e+00 3.778418573358154183e-16 1.260913019767810685e-15 0.000000000000000000e+00 4.340462791694681602e-16 -2.480713797116456360e-15 0.000000000000000000e+00 3.153112928507153104e-17 -1.521857423290758227e-15 -8.960859258024441794e-16 4.243025442769217592e-16 4.616820763560671419e-16 0.000000000000000000e+00 0.000000000000000000e+00 0.000000000000000000e+00 0.000000000000000000e+00 -6.286999804646018428e-16 -2.206798878716201541e-15 0.000000000000000000e+00 1.416912023337932652e-16 -4.415222396083533140e-15 -8.960859258024441794e-16 4.243025442769217592e-16 4.616820763560671419e-16 0.000000000000000000e+00 0.000000000000000000e+00 0.000000000000000000e+00 0.000000000000000000e+00 -5.020413669232408357e-16 -2.717642276832673080e-15 0.000000000000000000e+00 -8.652721412376187942e-16 -3.095314995187123614e-16 2.298312802898618695e-02 6.017348579931668801e-02 -1.955523602256369065e-01 2.715830469748058418e-01 -1.197495533596649175e-01 -2.155509479698633490e-02 -5.114809578795134759e-02 -2.067323199819007806e-01 1.565020875045052551e-01 2.101221789887366409e-01 5.743037339502984340e-01 -1.366139366009514688e+00 0.000000000000000000e+00 0.000000000000000000e+00 0.000000000000000000e+00 9.240734382262042650e-16 -2.184613235003177160e-15 0.000000000000000000e+00 -4.091238310442340444e-16 -2.105068415769521188e-15 0.000000000000000000e+00 2.898651461008453364e-17 -4.489503723499400783e-16 -8.183461729377578236e-16 0.000000000000000000e+00 0.000000000000000000e+00 0.000000000000000000e+00 0.000000000000000000e+00 -2.566486919735424514e-15 1.414614932470512009e-15 0.000000000000000000e+00 -8.662521489147517585e-16 -4.245547524281567200e-15 2.898651461008453364e-17 -4.489503723499400783e-16 -8.183461729377578236e-16 0.000000000000000000e+00 4.161424839187584398e-16 4.793321964041853683e-16 0.000000000000000000e+00 4.140556771074863871e-16 3.374900515226757653e-15 0.000000000000000000e+00 2.631395802954967726e-15 1.353923828821707081e-15 2.898651461008453364e-17 -4.489503723499400783e-16 -8.183461729377578236e-16 0.000000000000000000e+00 0.000000000000000000e+00 0.000000000000000000e+00 0.000000000000000000e+00 -5.183226581571770683e-16 1.374680184038327331e-15 0.000000000000000000e+00 -2.808718180886438606e-15 1.913281192085471327e-15 2.898651461008453364e-17 -4.489503723499400783e-16 -8.183461729377578236e-16 0.000000000000000000e+00 0.000000000000000000e+00 0.000000000000000000e+00 0.000000000000000000e+00 -2.208508180680799977e-15 3.407338938862636576e-15 0.000000000000000000e+00 1.411495894693544212e-15 -9.606302243610800080e-16
6.000391158718938414e+02 -1.444481211302512356e-02 3.064466207654239702e-02 -1.209767341856965162e-01 -3.875879552611198320e-01 -6.855908215948275375e-01 5.875243063424513412e-01 -1.136944729938594717e-01 1.016135879226365946e+00 -1.785381226852667536e-01 -2.732389426478902886e-02 -1.780613760125814363e-02 -2.390450756371976723e-02 1.601897158062536852e-01 6.176499886859999899e-02 1.273524584234708157e-01 1.920407545449494824e-01 6.793997377652817304e-01 -8.603321541287914376e-02 6.970334992105724214e-02 3.244728104754585063e-02 5.733506148172408390e-02 -2.480463834704824122e-02 8.806872913494258326e-02 -4.161731496109876693e-01 7.672120405554802569e-02 4.912362167506602595e-01 -8.828769935796715318e-02 1.158469198205377450e-02 1.104331030716487194e-01 -1.465783068725575733e-01 9.639696443166968082e-03 1.734789234119609447e-01 7.027251007615188845e-04 -8.820939343646635317e-03 -3.005753568811097946e-03 -3.879246358716053472e-02 -8.639125432565670018e-03 4.291169190253764365e-02 4.148196806876951193e-02 -1.457032383316662627e-01 -6.260740269626519083e-02 8.080525043326036716e-02 1.019735667439832655e-01 6.625728155001402164e-02 -1.199830622783023965e-01 1.863210454237690661e-01 -4.180683055279352939e-02 1.619785870452838505e+00 -7.631753709519503159e-01 -1.327036973537232267e+00 7.318159854521852914e-01 2.294503904109939096e+00 1.441590401594064152e+00 0.000000000000000000e+00 0.000000000000000000e+00 0.000000000000000000e+00 1.626882350615971282e-15 2.885748392596471276e-16 0.000000000000000000e+00 -2.714843523477054235e-15 -1.089777452627897620e-15 0.000000000000000000e+00 -8.537329607638494096e-16 3.560120135950706005e-16 3.252666037072336101e-16 0.000000000000000000e+00 0.000000000000000000e+00 0.000000000000000000e+00 0.000000000000000000e+00 -1.913824491320062075e-15 -6.807316678949066437e-16 0.000000000000000000e+00 5.693855078254451474e-16 1.885377035734608152e-16 -8.537329607638494096e-16 3.560120135950706005e-16 3.252666037072336101e-16 0.000000000000000000e+00 3.645246667096563840e-16 9.380782175724511311e-16 0.000000000000000000e+00 1.040272818867543160e-15 -2.332916708986321480e-15 0.000000000000000000e+00 2.126758405892569798e-16 -1.335565961044022959e-15 -8.537329607638494096e-16 3.560120135950706005e-16 3.252666037072336101e-16 0.000000000000000000e+00 0.000000000000000000e+00 0.000000000000000000e+00 0.000000000000000000e+00 -8.643252333527600739e-16 -2.640267779141521145e-15 0.000000000000000000e+00 -9.960374760577579208e-17 -4.657361870689277540e-15 -8.537329607638494096e-16 3.560120135950706005e-16 3.252666037072336101e-16 0.000000000000000000e+00 0.000000000000000000e+00 0.000000000000000000e+00 0.000000000000000000e+00 -2.448831043721757601e-16 -2.722275010871825252e-15 0.000000000000000000e+00 -9.731928007083196186e-16 1.286742269415914040e-16 8.994642009315972908e-02 1.358423652963978712e-01 -9.068076917126310921e-02 3.711799511296206555e-01 -2.695792901098074679e-01 -2.144030255727636114e-01 -1.363349426454968649e-01 -1.854609272708274414e-01 2.331004988254916643e-01 2.320336271762664937e-01 6.528068649170331028e-01 -1.516752316798853473e+00 0.000000000000000000e+00 0.000000000000000000e+00 0.000000000000000000e+00 5.329931162707331776e-16 -2.220995798427456634e-15 0.000000000000000000e+00 -4.245548625959509054e-16 -1.781457411436385974e-15 0.000000000000000000e+00 -1.578937932756034029e-16 -8.001550668207205227e-16 -6.751072972443393831e-16 0.000000000000000000e+00 0.000000000000000000e+00 0.000000000000000000e+00 0.000000000000000000e+00 -2.602661343013171500e-15 1.383520462312047738e-15 0.000000000000000000e+00 -5.127886974550933376e-16 -4.928203393842472120e-15 -1.578937932756034029e-16 -8.001550668207205227e-16 -6.751072972443393831e-16 0.000000000000000000e+00 9.827289467424002605e-17 6.205625476866179696e-16 0.000000000000000000e+00 3.890015596141598240e-16 3.031859086371846955e-15 0.000000000000000000e+00 2.591974910007425246e-15 1.606740525952228139e-15 -1.578937932756034029e-16 -8.001550668207205227e-16 -6.751072972443393831e-16 0.000000000000000000e+00 0.000000000000000000e+00 0.000000000000000000e+00 0.000000000000000000e+00 -2.145684894686579347e-16 1.278049177340281976e-15 0.000000000000000000e+00 -3.177869294964443115e-15 2.099598054463532769e-15 -1.578937932756034029e-16 -8.001550668207205227e-16 -6.751072972443393831e-16 0.000000000000000000e+00 0.000000000000000000e+00 0.000000000000000000e+00 0.000000000000000000e+00 -1.997522069244225289e-15 2.668529957307547920e-15 0.000000000000000000e+00 1.648318342438546782e-15 -1.319692334165196749e-15
